<svg xmlns="http://www.w3.org/2000/svg" viewBox="0 0 1200 462" width="1200" height="462" role="img" aria-label="A 3D SKU by SKU switching matrix: extruded cells whose height shows how often shoppers move between products." xmlns:c2pa="http://c2pa.org/manifest"><metadata><c2pa:manifest>AAAWgmp1bWIAAAAeanVtZGMycGEAEQAQgAAAqgA4m3EDYzJwYQAAABZcanVtYgAAAEdqdW1kYzJtYQARABCAAACqADibcQN1cm46YzJwYTo4ZTFmZjQ0Ny1hZGNlLTRmY2MtYTU4OS0yNzgwNWM1ZTc0YmEAAAADl2p1bWIAAAApanVtZGMyYXMAEQAQgAAAqgA4m3EDYzJwYS5hc3NlcnRpb25zAAAAALxqdW1iAAAARGp1bWRjYm9yABEAEIAAAKoAOJtxE2MycGEuaW5ncmVkaWVudC52MwAAAAAYYzJzaCzGUi1Juh7xxj6bdzhCmY8AAABwY2JvcqNpZGM6Zm9ybWF0bWltYWdlL3N2Zyt4bWxqaW5zdGFuY2VJRHgseG1wOmlpZDowYzJhOTkxNy04Y2I4LTQwYWYtODc2My02MWJmMmJjZjhmZWRscmVsYXRpb25zaGlwaHBhcmVudE9mAAAB4mp1bWIAAABBanVtZGNib3IAEQAQgAAAqgA4m3ETYzJwYS5hY3Rpb25zLnYyAAAAABhjMnNoavyO3TQiFT3oHlMRJGm+rAAAAZljYm9yomdhY3Rpb25zgqJmYWN0aW9ua2MycGEub3BlbmVkanBhcmFtZXRlcnOha2luZ3JlZGllbnRzgaJjdXJseC1zZWxmI2p1bWJmPWMycGEuYXNzZXJ0aW9ucy9jMnBhLmluZ3JlZGllbnQudjNkaGFzaFggrq1LWBD3FpO5Dls0pFia0qoIX8NPlaWi02mkAkTM9UqkZmFjdGlvbngdY29tLmFudGhyb3BpYy5jbGF1ZGUucHJvdmlkZWRqcGFyYW1ldGVyc6F4H2NvbS5hbnRocm9waWMub3JpZ2luLWNvbmZpZGVuY2VndW5rbm93bmtkZXNjcmlwdGlvbnhmQ2xhdWRlIHByb3ZpZGVkIHRoaXMgZmlsZSBhdCB0aGUgcmVxdWVzdCBvZiBhIHVzZXIgYW5kIG1heSBoYXZlIGNyZWF0ZWQgb3IgbW9kaWZpZWQgdGhlIGZpbGUgY29udGVudHMubXNvZnR3YXJlQWdlbnShZG5hbWVmQ2xhdWRlcmFsbEFjdGlvbnNJbmNsdWRlZPUAAADIanVtYgAAAEBqdW1kY2JvcgARABCAAACqADibcRNjMnBhLmhhc2guZGF0YQAAAAAYYzJzaHoTe3ZIJPRtXQOE25Tz48QAAACAY2JvcqVjYWxnZnNoYTI1NmNwYWRMAAAAAAAAAAAAAAAAZGhhc2hYIBbwCKbB9BUwJ6iZOJSaKjapt5Oj5k0f9uU/yMDrBFqaZG5hbWVuanVtYmYgbWFuaWZlc3RqZXhjbHVzaW9uc4GiZXN0YXJ0GQEeZmxlbmd0aBkeBAAAAj5qdW1iAAAAJ2p1bWRjMmNsABEAEIAAAKoAOJtxA2MycGEuY2xhaW0udjIAAAACD2Nib3KlY2FsZ2ZzaGEyNTZpc2lnbmF0dXJleE1zZWxmI2p1bWJmPS9jMnBhL3VybjpjMnBhOjhlMWZmNDQ3LWFkY2UtNGZjYy1hNTg5LTI3ODA1YzVlNzRiYS9jMnBhLnNpZ25hdHVyZWppbnN0YW5jZUlEeCx4bXA6aWlkOmExOGNlOWU3LTJiZTMtNGRjZS1iNDRkLWZkOGY1YmZmZjE3ZXJjcmVhdGVkX2Fzc2VydGlvbnODomN1cmx4LXNlbGYjanVtYmY9YzJwYS5hc3NlcnRpb25zL2MycGEuaW5ncmVkaWVudC52M2RoYXNoWCCurUtYEPcWk7kOWzSkWJrSqghfw0+VpaLTaaQCRMz1SqJjdXJseCpzZWxmI2p1bWJmPWMycGEuYXNzZXJ0aW9ucy9jMnBhLmFjdGlvbnMudjJkaGFzaFgg56bvpvGKczTirREiCYQuFTakxptFxoGS7uxHfMuxcKaiY3VybHgpc2VsZiNqdW1iZj1jMnBhLmFzc2VydGlvbnMvYzJwYS5oYXNoLmRhdGFkaGFzaFggUtoz/lqg3Dewger1utJMl+U6hRwPN76gkYv6j+/qUhV0Y2xhaW1fZ2VuZXJhdG9yX2luZm+jZG5hbWVvQW50aHJvcGljIEZpbGVzZ3ZlcnNpb25lMS4wLjBrc3BlY1ZlcnNpb25lMi40LjAAABA4anVtYgAAAChqdW1kYzJjcwARABCAAACqADibcQNjMnBhLnNpZ25hdHVyZQAAABAIY2JvctKEWQISogEmGCFZAgowggIGMIIBjaADAgECAhRA5aAK7sI50L64g/oGQgU9Z1UTADAKBggqhkjOPQQDAzBJMRcwFQYDVQQKEw5BbnRocm9waWMsIFBCQzEuMCwGA1UEAxMlQW50aHJvcGljIENvbnRlbnQgQ3JlZGVudGlhbHMgUm9vdCBDQTAeFw0yNjA4MDcxODQzNTZaFw0yODA4MDYxOTQzNTZaMEQxFzAVBgNVBAoTDkFudGhyb3BpYywgUEJDMSkwJwYDVQQDEyBBbnRocm9waWMgQ2xhdWRlIENvbnRlbnQgU2lnbmluZzBZMBMGByqGSM49AgEGCCqGSM49AwEHA0IABJh6CmvLUBgFFNU0vUKlOVtE6djd17L5SuwX0LemFisBM3dkd/3cyjxFA3Qo5S46fX0/ihY0VZ7mfb9KF703t5OjWDBWMA4GA1UdDwEB/wQEAwIHgDAVBgNVHSUEDjAMBgorBgEEAYPoXgIBMAwGA1UdEwEB/wQCMAAwHwYDVR0jBBgwFoAUzlHiBIFOZFsj+OPEz5o+nMHXXMIwCgYIKoZIzj0EAwMDZwAwZAIwMXMdFJ4BetLLVY7ORuE9noqbbAZOZn/aArXyTwFAZfKrPzxF2vPoJNf1+UCdg1XGAjBwX1zd9WGqYkqmL5SFqw1QySjr1zJfpJM9+1rdDwSPLMOPOjKuiXjoU/pUUeG9RwmhY3BhZFkNngAAAAAAAAAAAAAAAAAAAAAAAAAAAAAAAAAAAAAAAAAAAAAAAAAAAAAAAAAAAAAAAAAAAAAAAAAAAAAAAAAAAAAAAAAAAAAAAAAAAAAAAAAAAAAAAAAAAAAAAAAAAAAAAAAAAAAAAAAAAAAAAAAAAAAAAAAAAAAAAAAAAAAAAAAAAAAAAAAAAAAAAAAAAAAAAAAAAAAAAAAAAAAAAAAAAAAAAAAAAAAAAAAAAAAAAAAAAAAAAAAAAAAAAAAAAAAAAAAAAAAAAAAAAAAAAAAAAAAAAAAAAAAAAAAAAAAAAAAAAAAAAAAAAAAAAAAAAAAAAAAAAAAAAAAAAAAAAAAAAAAAAAAAAAAAAAAAAAAAAAAAAAAAAAAAAAAAAAAAAAAAAAAAAAAAAAAAAAAAAAAAAAAAAAAAAAAAAAAAAAAAAAAAAAAAAAAAAAAAAAAAAAAAAAAAAAAAAAAAAAAAAAAAAAAAAAAAAAAAAAAAAAAAAAAAAAAAAAAAAAAAAAAAAAAAAAAAAAAAAAAAAAAAAAAAAAAAAAAAAAAAAAAAAAAAAAAAAAAAAAAAAAAAAAAAAAAAAAAAAAAAAAAAAAAAAAAAAAAAAAAAAAAAAAAAAAAAAAAAAAAAAAAAAAAAAAAAAAAAAAAAAAAAAAAAAAAAAAAAAAAAAAAAAAAAAAAAAAAAAAAAAAAAAAAAAAAAAAAAAAAAAAAAAAAAAAAAAAAAAAAAAAAAAAAAAAAAAAAAAAAAAAAAAAAAAAAAAAAAAAAAAAAAAAAAAAAAAAAAAAAAAAAAAAAAAAAAAAAAAAAAAAAAAAAAAAAAAAAAAAAAAAAAAAAAAAAAAAAAAAAAAAAAAAAAAAAAAAAAAAAAAAAAAAAAAAAAAAAAAAAAAAAAAAAAAAAAAAAAAAAAAAAAAAAAAAAAAAAAAAAAAAAAAAAAAAAAAAAAAAAAAAAAAAAAAAAAAAAAAAAAAAAAAAAAAAAAAAAAAAAAAAAAAAAAAAAAAAAAAAAAAAAAAAAAAAAAAAAAAAAAAAAAAAAAAAAAAAAAAAAAAAAAAAAAAAAAAAAAAAAAAAAAAAAAAAAAAAAAAAAAAAAAAAAAAAAAAAAAAAAAAAAAAAAAAAAAAAAAAAAAAAAAAAAAAAAAAAAAAAAAAAAAAAAAAAAAAAAAAAAAAAAAAAAAAAAAAAAAAAAAAAAAAAAAAAAAAAAAAAAAAAAAAAAAAAAAAAAAAAAAAAAAAAAAAAAAAAAAAAAAAAAAAAAAAAAAAAAAAAAAAAAAAAAAAAAAAAAAAAAAAAAAAAAAAAAAAAAAAAAAAAAAAAAAAAAAAAAAAAAAAAAAAAAAAAAAAAAAAAAAAAAAAAAAAAAAAAAAAAAAAAAAAAAAAAAAAAAAAAAAAAAAAAAAAAAAAAAAAAAAAAAAAAAAAAAAAAAAAAAAAAAAAAAAAAAAAAAAAAAAAAAAAAAAAAAAAAAAAAAAAAAAAAAAAAAAAAAAAAAAAAAAAAAAAAAAAAAAAAAAAAAAAAAAAAAAAAAAAAAAAAAAAAAAAAAAAAAAAAAAAAAAAAAAAAAAAAAAAAAAAAAAAAAAAAAAAAAAAAAAAAAAAAAAAAAAAAAAAAAAAAAAAAAAAAAAAAAAAAAAAAAAAAAAAAAAAAAAAAAAAAAAAAAAAAAAAAAAAAAAAAAAAAAAAAAAAAAAAAAAAAAAAAAAAAAAAAAAAAAAAAAAAAAAAAAAAAAAAAAAAAAAAAAAAAAAAAAAAAAAAAAAAAAAAAAAAAAAAAAAAAAAAAAAAAAAAAAAAAAAAAAAAAAAAAAAAAAAAAAAAAAAAAAAAAAAAAAAAAAAAAAAAAAAAAAAAAAAAAAAAAAAAAAAAAAAAAAAAAAAAAAAAAAAAAAAAAAAAAAAAAAAAAAAAAAAAAAAAAAAAAAAAAAAAAAAAAAAAAAAAAAAAAAAAAAAAAAAAAAAAAAAAAAAAAAAAAAAAAAAAAAAAAAAAAAAAAAAAAAAAAAAAAAAAAAAAAAAAAAAAAAAAAAAAAAAAAAAAAAAAAAAAAAAAAAAAAAAAAAAAAAAAAAAAAAAAAAAAAAAAAAAAAAAAAAAAAAAAAAAAAAAAAAAAAAAAAAAAAAAAAAAAAAAAAAAAAAAAAAAAAAAAAAAAAAAAAAAAAAAAAAAAAAAAAAAAAAAAAAAAAAAAAAAAAAAAAAAAAAAAAAAAAAAAAAAAAAAAAAAAAAAAAAAAAAAAAAAAAAAAAAAAAAAAAAAAAAAAAAAAAAAAAAAAAAAAAAAAAAAAAAAAAAAAAAAAAAAAAAAAAAAAAAAAAAAAAAAAAAAAAAAAAAAAAAAAAAAAAAAAAAAAAAAAAAAAAAAAAAAAAAAAAAAAAAAAAAAAAAAAAAAAAAAAAAAAAAAAAAAAAAAAAAAAAAAAAAAAAAAAAAAAAAAAAAAAAAAAAAAAAAAAAAAAAAAAAAAAAAAAAAAAAAAAAAAAAAAAAAAAAAAAAAAAAAAAAAAAAAAAAAAAAAAAAAAAAAAAAAAAAAAAAAAAAAAAAAAAAAAAAAAAAAAAAAAAAAAAAAAAAAAAAAAAAAAAAAAAAAAAAAAAAAAAAAAAAAAAAAAAAAAAAAAAAAAAAAAAAAAAAAAAAAAAAAAAAAAAAAAAAAAAAAAAAAAAAAAAAAAAAAAAAAAAAAAAAAAAAAAAAAAAAAAAAAAAAAAAAAAAAAAAAAAAAAAAAAAAAAAAAAAAAAAAAAAAAAAAAAAAAAAAAAAAAAAAAAAAAAAAAAAAAAAAAAAAAAAAAAAAAAAAAAAAAAAAAAAAAAAAAAAAAAAAAAAAAAAAAAAAAAAAAAAAAAAAAAAAAAAAAAAAAAAAAAAAAAAAAAAAAAAAAAAAAAAAAAAAAAAAAAAAAAAAAAAAAAAAAAAAAAAAAAAAAAAAAAAAAAAAAAAAAAAAAAAAAAAAAAAAAAAAAAAAAAAAAAAAAAAAAAAAAAAAAAAAAAAAAAAAAAAAAAAAAAAAAAAAAAAAAAAAAAAAAAAAAAAAAAAAAAAAAAAAAAAAAAAAAAAAAAAAAAAAAAAAAAAAAAAAAAAAAAAAAAAAAAAAAAAAAAAAAAAAAAAAAAAAAAAAAAAAAAAAAAAAAAAAAAAAAAAAAAAAAAAAAAAAAAAAAAAAAAAAAAAAAAAAAAAAAAAAAAAAAAAAAAAAAAAAAAAAAAAAAAAAAAAAAAAAAAAAAAAAAAAAAAAAAAAAAAAAAAAAAAAAAAAAAAAAAAAAAAAAAAAAAAAAAAAAAAAAAAAAAAAAAAAAAAAAAAAAAAAAAAAAAAAAAAAAAAAAAAAAAAAAAAAAAAAAAAAAAAAAAAAAAAAAAAAAAAAAAAAAAAAAAAAAAAAAAAAAAAAAAAAAAAAAAAAAAAAAAAAAAAAAAAAAAAAAAAAAAAAAAAAAAAAAAAAAAAAAAAAAAAAAAAAAAAAAAAAAAAAAAAAAAAAAAAAAAAAAAAAAAAAAAAAAAAAAAAAAAAAAAAAAAAAAAAAAAAAAAAAAAAAAAAAAAAAAAAAAAAAAAAAAAAAAAAAAAAAAAAAAAAAAAAAAAAAAAAAAAAAAAAAAAAAAAAAAAAAAAAAAAAAAAAAAAAAAAAAAAAAAAAAAAAAAAAAAAAAAAAAAAAAAAAAAAAAAAAAAAAAAAAAAAAAAAAAAAAAAAAAAAAAAAAAAAAAAAAAAAAAAAAAAAAAAAAAAAAAAAAAAAAAAAAAAAAAAAAAAAAAAAAAAAAAAAAAAAAAAAAAAAAAAAAAAAAAAAAAAAAAAAAAAAAAAAAAAAAAAAAAAAAAAAAAAAAAAAAAAAAAAAAAAAAAAAAAAAAAAAAAAAAAAAAAAAAAAAAAAAAAAAAAAAAAAAAAAAAAAAAAAAAAAAAAAAAAAAAAAAAAAAAAAAAAAAAAAAAAAAAAAAAAAAAAAAAAAAAAAAAAAAAAAAAAAAAAAAAAAAAAAAAAAAAAAAAAAAAAAAAAAAAAAAAAAAAAAAAAAAAAAAAAAAAAAAAAAAAAAAAAAAAAAAAAAAAAAAAAAAAAAAAAAAAAAAAAAAAAAAAAAAAAAAAAAAAAAAAAAAAAAAAAAAAAAAAAAAAAAAAAAAAAAAAAAAAAAAAAAAAAAAAAAAAAAAAAAAAAAAAAAAAAAAAAAAAAAAAAAAAAAAAAAAAAAAAAAAAAAAAAAAAAAAAAAAAAAAAAAAAAAAAAAAAAAAAAAAAAAAAAAAAAAAAAAAAAAAAAAAAAAAAAAAAAAAAAAAAAAAAAAAAAAAAAAAAAAAAAAAAAAAAAAAAAAAAAAAAAAAAAAAAAAAAAAAAAAAAAAAAAAAAAAAAAAAAAAAAAAAAAAAAAAAAAAAAAAAAAAAAAAAAAAAAAAAAAAAAAAAAAAAAAAAAAAAAAAAAAAAAAAAAAAAAAAAAAAAAAAAAAAAAAAAAAAAAAAAAAAAAAAAAAAAAAAAAAAAAAAAAAAAAAAAAAAAAAAAAAAAAAAAAAAAAAAAAAAAAAAAAAAAAAAAAAAAAAAAAAAAAAAAAAAAAAAAAAAAAAAAAAAAAAAAAAAAAAAAAAAAAAAAAAAAAAAAAAAAAAAAAAAAAAAAAAAAAAAAAAAAAAAAAAAAAAAAAAAAAAAAAAAAAAAAAAAAAAAAAAAAAAAAAAAAAAAAAAAAAAAAAAAAAAAAAAAAAAAAAAAPZYQEEpZynbCwKXikLIt4HOvfRC7NATsvgCAf/iWWrMaM/RoNlmJiTOwBwjoLnmhsQbhL2Nua75DEJbxYaNpXDGSa0=</c2pa:manifest></metadata>
<title>SKU x SKU switching structure</title>
<defs>
<linearGradient id="mbg" x1="0" y1="0" x2="1" y2="1">
<stop offset="0" stop-color="#070B14"/><stop offset="60%" stop-color="#0A1122"/><stop offset="100%" stop-color="#0D0A1C"/>
</linearGradient>
<style>
.cl .tp{animation:pop 1.15s cubic-bezier(.2,.8,.25,1) backwards;animation-delay:inherit}
.cl .fc{animation:grow 1.15s cubic-bezier(.2,.8,.25,1) backwards;animation-delay:inherit;
transform-box:fill-box;transform-origin:bottom}
@keyframes pop{from{transform:translateY(var(--h))}to{transform:translateY(0)}}
@keyframes grow{from{transform:scaleY(0)}to{transform:scaleY(1)}}
.gp line{stroke:#1B2740;stroke-width:.8}
@media (prefers-reduced-motion:reduce){*{animation:none!important}}
</style>
</defs>
<rect width="1200" height="462" rx="14" fill="url(#mbg)"/>
<g font-family="Georgia,'Iowan Old Style','Palatino Linotype',serif">
<text x="60" y="52" font-size="25" fill="#F2F6FF">How shoppers move between products</text>
</g>
<g font-family="ui-monospace,SFMono-Regular,Menlo,Consolas,monospace" font-size="11.5" fill="#7B8DA8" letter-spacing=".4">
<text x="60" y="76">every bar is one SKU pair; taller means more switching. reading this fast is what</text>
<text x="60" y="94">pricing and assortment decisions rest on.</text>
</g>
<g class="gp" opacity=".55"><line x1="600.0" y1="172.8" x2="267.5" y2="288.0"/><line x1="600.0" y1="172.8" x2="932.5" y2="288.0"/><line x1="641.6" y1="187.2" x2="309.0" y2="302.4"/><line x1="558.4" y1="187.2" x2="891.0" y2="302.4"/><line x1="683.1" y1="201.6" x2="350.6" y2="316.8"/><line x1="516.9" y1="201.6" x2="849.4" y2="316.8"/><line x1="724.7" y1="216.0" x2="392.2" y2="331.2"/><line x1="475.3" y1="216.0" x2="807.8" y2="331.2"/><line x1="766.3" y1="230.4" x2="433.7" y2="345.6"/><line x1="433.7" y1="230.4" x2="766.3" y2="345.6"/><line x1="807.8" y1="244.8" x2="475.3" y2="360.0"/><line x1="392.2" y1="244.8" x2="724.7" y2="360.0"/><line x1="849.4" y1="259.2" x2="516.9" y2="374.4"/><line x1="350.6" y1="259.2" x2="683.1" y2="374.4"/><line x1="891.0" y1="273.6" x2="558.4" y2="388.8"/><line x1="309.0" y1="273.6" x2="641.6" y2="388.8"/><line x1="932.5" y1="288.0" x2="600.0" y2="403.2"/><line x1="267.5" y1="288.0" x2="600.0" y2="403.2"/></g>
<g class="cl" style="animation-delay:0.0s"><polygon class="fc" points="634.9,187.2 600.0,199.3 600.0,185.9 634.9,173.8" fill="#392167"/><polygon class="fc" points="565.1,187.2 600.0,199.3 600.0,185.9 565.1,173.8" fill="#251543"/><polygon class="tp" style="--h:13.4px" points="600.0,161.7 634.9,173.8 600.0,185.9 565.1,173.8" fill="#5c35a7" stroke="#7c48e1" stroke-width=".7" stroke-opacity=".55"/></g><g class="cl" style="animation-delay:0.075s"><polygon class="fc" points="593.3,201.6 558.4,213.7 558.4,208.9 593.3,196.9" fill="#221848"/><polygon class="fc" points="523.5,201.6 558.4,213.7 558.4,208.9 523.5,196.9" fill="#16102e"/><polygon class="tp" style="--h:4.8px" points="558.4,184.8 593.3,196.9 558.4,208.9 523.5,196.9" fill="#362874" stroke="#4a359c" stroke-width=".7" stroke-opacity=".55"/></g><g class="cl" style="animation-delay:0.075s"><polygon class="fc" points="676.5,201.6 641.6,213.7 641.6,202.3 676.5,190.2" fill="#341f60"/><polygon class="fc" points="606.7,201.6 641.6,213.7 641.6,202.3 606.7,190.2" fill="#21143e"/><polygon class="tp" style="--h:11.4px" points="641.6,178.1 676.5,190.2 641.6,202.3 606.7,190.2" fill="#53329b" stroke="#7144d1" stroke-width=".7" stroke-opacity=".55"/></g><g class="cl" style="animation-delay:0.15s"><polygon class="fc" points="551.8,216.0 516.9,228.1 516.9,216.3 551.8,204.2" fill="#351f61"/><polygon class="fc" points="481.9,216.0 516.9,228.1 516.9,216.3 481.9,204.2" fill="#22143f"/><polygon class="tp" style="--h:11.8px" points="516.9,192.1 551.8,204.2 516.9,216.3 481.9,204.2" fill="#55339d" stroke="#7344d4" stroke-width=".7" stroke-opacity=".55"/></g><g class="cl" style="animation-delay:0.15s"><polygon class="fc" points="634.9,216.0 600.0,228.1 600.0,214.3 634.9,202.2" fill="#3a2169"/><polygon class="fc" points="565.1,216.0 600.0,228.1 600.0,214.3 565.1,202.2" fill="#251644"/><polygon class="tp" style="--h:13.8px" points="600.0,190.1 634.9,202.2 600.0,214.3 565.1,202.2" fill="#5e36a9" stroke="#7e49e4" stroke-width=".7" stroke-opacity=".55"/></g><g class="cl" style="animation-delay:0.15s"><polygon class="fc" points="718.1,216.0 683.1,228.1 683.1,208.2 718.1,196.1" fill="#4a277f"/><polygon class="fc" points="648.2,216.0 683.1,228.1 683.1,208.2 648.2,196.1" fill="#301952"/><polygon class="tp" style="--h:19.9px" points="683.1,184.0 718.1,196.1 683.1,208.2 648.2,196.1" fill="#783fcd" stroke="#a256ff" stroke-width=".7" stroke-opacity=".55"/></g><g class="cl" style="animation-delay:0.225s"><polygon class="fc" points="510.2,230.4 475.3,242.5 475.3,233.3 510.2,221.2" fill="#2e1d58"/><polygon class="fc" points="440.4,230.4 475.3,242.5 475.3,233.3 440.4,221.2" fill="#1e1339"/><polygon class="tp" style="--h:9.2px" points="475.3,209.1 510.2,221.2 475.3,233.3 440.4,221.2" fill="#4a2f8e" stroke="#643fc0" stroke-width=".7" stroke-opacity=".55"/></g><g class="cl" style="animation-delay:0.225s"><polygon class="fc" points="593.3,230.4 558.4,242.5 558.4,237.0 593.3,224.9" fill="#24194a"/><polygon class="fc" points="523.5,230.4 558.4,242.5 558.4,237.0 523.5,224.9" fill="#171030"/><polygon class="tp" style="--h:5.5px" points="558.4,212.8 593.3,224.9 558.4,237.0 523.5,224.9" fill="#3a2978" stroke="#4e37a2" stroke-width=".7" stroke-opacity=".55"/></g><g class="cl" style="animation-delay:0.225s"><polygon class="fc" points="676.5,230.4 641.6,242.5 641.6,227.7 676.5,215.6" fill="#3d226c"/><polygon class="fc" points="606.7,230.4 641.6,242.5 641.6,227.7 606.7,215.6" fill="#271646"/><polygon class="tp" style="--h:14.8px" points="641.6,203.5 676.5,215.6 641.6,227.7 606.7,215.6" fill="#6237af" stroke="#844bec" stroke-width=".7" stroke-opacity=".55"/></g><g class="cl" style="animation-delay:0.225s"><polygon class="fc" points="759.6,230.4 724.7,242.5 724.7,230.1 759.6,218.0" fill="#362064"/><polygon class="fc" points="689.8,230.4 724.7,242.5 724.7,230.1 689.8,218.0" fill="#231540"/><polygon class="tp" style="--h:12.4px" points="724.7,205.9 759.6,218.0 724.7,230.1 689.8,218.0" fill="#5734a1" stroke="#7646d9" stroke-width=".7" stroke-opacity=".55"/></g><g class="cl" style="animation-delay:0.3s"><polygon class="fc" points="468.6,244.8 433.7,256.9 433.7,238.9 468.6,226.8" fill="#452578"/><polygon class="fc" points="398.8,244.8 433.7,256.9 433.7,238.9 398.8,226.8" fill="#2d184d"/><polygon class="tp" style="--h:18.0px" points="433.7,214.7 468.6,226.8 433.7,238.9 398.8,226.8" fill="#703cc2" stroke="#9752ff" stroke-width=".7" stroke-opacity=".55"/></g><g class="cl" style="animation-delay:0.3s"><polygon class="fc" points="551.8,244.8 516.9,256.9 516.9,247.9 551.8,235.8" fill="#2d1d57"/><polygon class="fc" points="481.9,244.8 516.9,256.9 516.9,247.9 481.9,235.8" fill="#1d1238"/><polygon class="tp" style="--h:9.0px" points="516.9,223.7 551.8,235.8 516.9,247.9 481.9,235.8" fill="#492e8d" stroke="#623ebe" stroke-width=".7" stroke-opacity=".55"/></g><g class="cl" style="animation-delay:0.3s"><polygon class="fc" points="634.9,244.8 600.0,256.9 600.0,242.9 634.9,230.8" fill="#3a2169"/><polygon class="fc" points="565.1,244.8 600.0,256.9 600.0,242.9 565.1,230.8" fill="#261644"/><polygon class="tp" style="--h:14.0px" points="600.0,218.8 634.9,230.8 600.0,242.9 565.1,230.8" fill="#5e36aa" stroke="#7f49e5" stroke-width=".7" stroke-opacity=".55"/></g><g class="cl" style="animation-delay:0.3s"><polygon class="fc" points="718.1,244.8 683.1,256.9 683.1,239.7 718.1,227.6" fill="#432575"/><polygon class="fc" points="648.2,244.8 683.1,256.9 683.1,239.7 648.2,227.6" fill="#2b184c"/><polygon class="tp" style="--h:17.2px" points="683.1,215.5 718.1,227.6 683.1,239.7 648.2,227.6" fill="#6c3bbd" stroke="#9250ff" stroke-width=".7" stroke-opacity=".55"/></g><g class="cl" style="animation-delay:0.3s"><polygon class="fc" points="801.2,244.8 766.3,256.9 766.3,249.1 801.2,237.0" fill="#2a1b53"/><polygon class="fc" points="731.4,244.8 766.3,256.9 766.3,249.1 731.4,237.0" fill="#1b1235"/><polygon class="tp" style="--h:7.8px" points="766.3,224.9 801.2,237.0 766.3,249.1 731.4,237.0" fill="#442c86" stroke="#5b3cb5" stroke-width=".7" stroke-opacity=".55"/></g><g class="cl" style="animation-delay:0.375s"><polygon class="fc" points="427.1,259.2 392.2,271.3 392.2,220.0 427.1,207.9" fill="#325f9e"/><polygon class="fc" points="357.2,259.2 392.2,271.3 392.2,220.0 357.2,207.9" fill="#203d66"/><polygon class="tp" style="--h:51.3px" points="392.2,195.8 427.1,207.9 392.2,220.0 357.2,207.9" fill="#509aff" stroke="#6ccfff" stroke-width=".7" stroke-opacity=".55"/></g><g class="cl" style="animation-delay:0.375s"><polygon class="fc" points="510.2,259.2 475.3,271.3 475.3,262.1 510.2,250.0" fill="#2e1d58"/><polygon class="fc" points="440.4,259.2 475.3,271.3 475.3,262.1 440.4,250.0" fill="#1d1339"/><polygon class="tp" style="--h:9.2px" points="475.3,237.9 510.2,250.0 475.3,262.1 440.4,250.0" fill="#4a2e8e" stroke="#633fbf" stroke-width=".7" stroke-opacity=".55"/></g><g class="cl" style="animation-delay:0.375s"><polygon class="fc" points="593.3,259.2 558.4,271.3 558.4,262.5 593.3,250.4" fill="#2d1c57"/><polygon class="fc" points="523.5,259.2 558.4,271.3 558.4,262.5 523.5,250.4" fill="#1d1238"/><polygon class="tp" style="--h:8.8px" points="558.4,238.3 593.3,250.4 558.4,262.5 523.5,250.4" fill="#482e8c" stroke="#613ebc" stroke-width=".7" stroke-opacity=".55"/></g><g class="cl" style="animation-delay:0.375s"><polygon class="fc" points="676.5,259.2 641.6,271.3 641.6,218.4 676.5,206.3" fill="#2e639e"/><polygon class="fc" points="606.7,259.2 641.6,271.3 641.6,218.4 606.7,206.3" fill="#1e4066"/><polygon class="tp" style="--h:52.9px" points="641.6,194.2 676.5,206.3 641.6,218.4 606.7,206.3" fill="#4ba0ff" stroke="#65d8ff" stroke-width=".7" stroke-opacity=".55"/></g><g class="cl" style="animation-delay:0.375s"><polygon class="fc" points="759.6,259.2 724.7,271.3 724.7,258.9 759.6,246.8" fill="#362064"/><polygon class="fc" points="689.8,259.2 724.7,271.3 724.7,258.9 689.8,246.8" fill="#231540"/><polygon class="tp" style="--h:12.4px" points="724.7,234.7 759.6,246.8 724.7,258.9 689.8,246.8" fill="#5734a1" stroke="#7646d9" stroke-width=".7" stroke-opacity=".55"/></g><g class="cl" style="animation-delay:0.375s"><polygon class="fc" points="842.8,259.2 807.8,271.3 807.8,261.7 842.8,249.6" fill="#2f1d59"/><polygon class="fc" points="772.9,259.2 807.8,271.3 807.8,261.7 772.9,249.6" fill="#1e133a"/><polygon class="tp" style="--h:9.6px" points="807.8,237.5 842.8,249.6 807.8,261.7 772.9,249.6" fill="#4b2f90" stroke="#6640c3" stroke-width=".7" stroke-opacity=".55"/></g><g class="cl" style="animation-delay:0.45s"><polygon class="fc" points="385.5,273.6 350.6,285.7 350.6,233.7 385.5,221.6" fill="#30619e"/><polygon class="fc" points="315.7,273.6 350.6,285.7 350.6,233.7 315.7,221.6" fill="#1f3e66"/><polygon class="tp" style="--h:52.0px" points="350.6,209.5 385.5,221.6 350.6,233.7 315.7,221.6" fill="#4e9cff" stroke="#69d3ff" stroke-width=".7" stroke-opacity=".55"/></g><g class="cl" style="animation-delay:0.45s"><polygon class="fc" points="468.6,273.6 433.7,285.7 433.7,236.3 468.6,224.2" fill="#365b9e"/><polygon class="fc" points="398.8,273.6 433.7,285.7 433.7,236.3 398.8,224.2" fill="#233b66"/><polygon class="tp" style="--h:49.4px" points="433.7,212.1 468.6,224.2 433.7,236.3 398.8,224.2" fill="#5793ff" stroke="#75c7ff" stroke-width=".7" stroke-opacity=".55"/></g><g class="cl" style="animation-delay:0.45s"><polygon class="fc" points="551.8,273.6 516.9,285.7 516.9,279.0 551.8,266.9" fill="#271a4f"/><polygon class="fc" points="481.9,273.6 516.9,285.7 516.9,279.0 481.9,266.9" fill="#191133"/><polygon class="tp" style="--h:6.7px" points="516.9,254.8 551.8,266.9 516.9,279.0 481.9,266.9" fill="#3f2b7f" stroke="#5539ac" stroke-width=".7" stroke-opacity=".55"/></g><g class="cl" style="animation-delay:0.45s"><polygon class="fc" points="634.9,273.6 600.0,285.7 600.0,236.7 634.9,224.6" fill="#375b9e"/><polygon class="fc" points="565.1,273.6 600.0,285.7 600.0,236.7 565.1,224.6" fill="#233a66"/><polygon class="tp" style="--h:49.0px" points="600.0,212.5 634.9,224.6 600.0,236.7 565.1,224.6" fill="#5892ff" stroke="#77c5ff" stroke-width=".7" stroke-opacity=".55"/></g><g class="cl" style="animation-delay:0.45s"><polygon class="fc" points="718.1,273.6 683.1,285.7 683.1,236.8 718.1,224.7" fill="#375a9e"/><polygon class="fc" points="648.2,273.6 683.1,285.7 683.1,236.8 648.2,224.7" fill="#233a66"/><polygon class="tp" style="--h:48.9px" points="683.1,212.6 718.1,224.7 683.1,236.8 648.2,224.7" fill="#5892ff" stroke="#77c5ff" stroke-width=".7" stroke-opacity=".55"/></g><g class="cl" style="animation-delay:0.45s"><polygon class="fc" points="801.2,273.6 766.3,285.7 766.3,280.7 801.2,268.6" fill="#221949"/><polygon class="fc" points="731.4,273.6 766.3,285.7 766.3,280.7 731.4,268.6" fill="#16102f"/><polygon class="tp" style="--h:5.0px" points="766.3,256.5 801.2,268.6 766.3,280.7 731.4,268.6" fill="#382875" stroke="#4b369e" stroke-width=".7" stroke-opacity=".55"/></g><g class="cl" style="animation-delay:0.45s"><polygon class="fc" points="884.3,273.6 849.4,285.7 849.4,239.8 884.3,227.7" fill="#3d549e"/><polygon class="fc" points="814.5,273.6 849.4,285.7 849.4,239.8 814.5,227.7" fill="#273666"/><polygon class="tp" style="--h:45.9px" points="849.4,215.6 884.3,227.7 849.4,239.8 814.5,227.7" fill="#6288ff" stroke="#85b7ff" stroke-width=".7" stroke-opacity=".55"/></g><g class="cl" style="animation-delay:0.525s"><polygon class="fc" points="343.9,288.0 309.0,300.1 309.0,229.8 343.9,217.7" fill="#088e9e"/><polygon class="fc" points="274.1,288.0 309.0,300.1 309.0,229.8 274.1,217.7" fill="#055c66"/><polygon class="tp" style="--h:70.3px" points="309.0,205.6 343.9,217.7 309.0,229.8 274.1,217.7" fill="#0de6ff" stroke="#12ffff" stroke-width=".7" stroke-opacity=".55"/></g><g class="cl" style="animation-delay:0.525s"><polygon class="fc" points="427.1,288.0 392.2,300.1 392.2,225.1 427.1,213.0" fill="#00979b"/><polygon class="fc" points="357.2,288.0 392.2,300.1 392.2,225.1 357.2,213.0" fill="#006164"/><polygon class="tp" style="--h:75.0px" points="392.2,200.9 427.1,213.0 392.2,225.1 357.2,213.0" fill="#00f4fa" stroke="#00ffff" stroke-width=".7" stroke-opacity=".55"/></g><g class="cl" style="animation-delay:0.525s"><polygon class="fc" points="510.2,288.0 475.3,300.1 475.3,231.0 510.2,218.9" fill="#0b8b9e"/><polygon class="fc" points="440.4,288.0 475.3,300.1 475.3,231.0 440.4,218.9" fill="#075a66"/><polygon class="tp" style="--h:69.1px" points="475.3,206.8 510.2,218.9 475.3,231.0 440.4,218.9" fill="#12e1ff" stroke="#18ffff" stroke-width=".7" stroke-opacity=".55"/></g><g class="cl" style="animation-delay:0.525s"><polygon class="fc" points="593.3,288.0 558.4,300.1 558.4,234.2 593.3,222.1" fill="#12839e"/><polygon class="fc" points="523.5,288.0 558.4,300.1 558.4,234.2 523.5,222.1" fill="#0c5566"/><polygon class="tp" style="--h:65.9px" points="558.4,210.0 593.3,222.1 558.4,234.2 523.5,222.1" fill="#1dd4ff" stroke="#27ffff" stroke-width=".7" stroke-opacity=".55"/></g><g class="cl" style="animation-delay:0.525s"><polygon class="fc" points="676.5,288.0 641.6,300.1 641.6,227.4 676.5,215.4" fill="#03949e"/><polygon class="fc" points="606.7,288.0 641.6,300.1 641.6,227.4 606.7,215.4" fill="#026066"/><polygon class="tp" style="--h:72.6px" points="641.6,203.3 676.5,215.4 641.6,227.4 606.7,215.4" fill="#05efff" stroke="#07ffff" stroke-width=".7" stroke-opacity=".55"/></g><g class="cl" style="animation-delay:0.525s"><polygon class="fc" points="759.6,288.0 724.7,300.1 724.7,226.0 759.6,213.9" fill="#00989e"/><polygon class="fc" points="689.8,288.0 724.7,300.1 724.7,226.0 689.8,213.9" fill="#006266"/><polygon class="tp" style="--h:74.1px" points="724.7,201.8 759.6,213.9 724.7,226.0 689.8,213.9" fill="#00f5ff" stroke="#00ffff" stroke-width=".7" stroke-opacity=".55"/></g><g class="cl" style="animation-delay:0.525s"><polygon class="fc" points="842.8,288.0 807.8,300.1 807.8,233.1 842.8,221.0" fill="#10869e"/><polygon class="fc" points="772.9,288.0 807.8,300.1 807.8,233.1 772.9,221.0" fill="#0a5766"/><polygon class="tp" style="--h:67.0px" points="807.8,208.9 842.8,221.0 807.8,233.1 772.9,221.0" fill="#19d8ff" stroke="#22ffff" stroke-width=".7" stroke-opacity=".55"/></g><g class="cl" style="animation-delay:0.525s"><polygon class="fc" points="925.9,288.0 891.0,300.1 891.0,232.7 925.9,220.6" fill="#0f879e"/><polygon class="fc" points="856.1,288.0 891.0,300.1 891.0,232.7 856.1,220.6" fill="#095766"/><polygon class="tp" style="--h:67.4px" points="891.0,208.5 925.9,220.6 891.0,232.7 856.1,220.6" fill="#18daff" stroke="#20ffff" stroke-width=".7" stroke-opacity=".55"/></g><g class="cl" style="animation-delay:0.6s"><polygon class="fc" points="385.5,302.4 350.6,314.5 350.6,262.5 385.5,250.4" fill="#30619e"/><polygon class="fc" points="315.7,302.4 350.6,314.5 350.6,262.5 315.7,250.4" fill="#1f3e66"/><polygon class="tp" style="--h:52.0px" points="350.6,238.3 385.5,250.4 350.6,262.5 315.7,250.4" fill="#4e9cff" stroke="#69d3ff" stroke-width=".7" stroke-opacity=".55"/></g><g class="cl" style="animation-delay:0.6s"><polygon class="fc" points="468.6,302.4 433.7,314.5 433.7,265.1 468.6,253.0" fill="#365b9e"/><polygon class="fc" points="398.8,302.4 433.7,314.5 433.7,265.1 398.8,253.0" fill="#233b66"/><polygon class="tp" style="--h:49.4px" points="433.7,240.9 468.6,253.0 433.7,265.1 398.8,253.0" fill="#5793ff" stroke="#75c7ff" stroke-width=".7" stroke-opacity=".55"/></g><g class="cl" style="animation-delay:0.6s"><polygon class="fc" points="551.8,302.4 516.9,314.5 516.9,307.8 551.8,295.7" fill="#271a4f"/><polygon class="fc" points="481.9,302.4 516.9,314.5 516.9,307.8 481.9,295.7" fill="#191133"/><polygon class="tp" style="--h:6.7px" points="516.9,283.6 551.8,295.7 516.9,307.8 481.9,295.7" fill="#3f2b7f" stroke="#5539ac" stroke-width=".7" stroke-opacity=".55"/></g><g class="cl" style="animation-delay:0.6s"><polygon class="fc" points="634.9,302.4 600.0,314.5 600.0,265.5 634.9,253.4" fill="#375b9e"/><polygon class="fc" points="565.1,302.4 600.0,314.5 600.0,265.5 565.1,253.4" fill="#233a66"/><polygon class="tp" style="--h:49.0px" points="600.0,241.3 634.9,253.4 600.0,265.5 565.1,253.4" fill="#5892ff" stroke="#77c5ff" stroke-width=".7" stroke-opacity=".55"/></g><g class="cl" style="animation-delay:0.6s"><polygon class="fc" points="718.1,302.4 683.1,314.5 683.1,265.6 718.1,253.5" fill="#375a9e"/><polygon class="fc" points="648.2,302.4 683.1,314.5 683.1,265.6 648.2,253.5" fill="#233a66"/><polygon class="tp" style="--h:48.9px" points="683.1,241.4 718.1,253.5 683.1,265.6 648.2,253.5" fill="#5892ff" stroke="#77c5ff" stroke-width=".7" stroke-opacity=".55"/></g><g class="cl" style="animation-delay:0.6s"><polygon class="fc" points="801.2,302.4 766.3,314.5 766.3,309.5 801.2,297.4" fill="#221949"/><polygon class="fc" points="731.4,302.4 766.3,314.5 766.3,309.5 731.4,297.4" fill="#16102f"/><polygon class="tp" style="--h:5.0px" points="766.3,285.3 801.2,297.4 766.3,309.5 731.4,297.4" fill="#382875" stroke="#4b369e" stroke-width=".7" stroke-opacity=".55"/></g><g class="cl" style="animation-delay:0.6s"><polygon class="fc" points="884.3,302.4 849.4,314.5 849.4,268.6 884.3,256.5" fill="#3d549e"/><polygon class="fc" points="814.5,302.4 849.4,314.5 849.4,268.6 814.5,256.5" fill="#273666"/><polygon class="tp" style="--h:45.9px" points="849.4,244.4 884.3,256.5 849.4,268.6 814.5,256.5" fill="#6288ff" stroke="#85b7ff" stroke-width=".7" stroke-opacity=".55"/></g><g class="cl" style="animation-delay:0.675s"><polygon class="fc" points="427.1,316.8 392.2,328.9 392.2,277.6 427.1,265.5" fill="#325f9e"/><polygon class="fc" points="357.2,316.8 392.2,328.9 392.2,277.6 357.2,265.5" fill="#203d66"/><polygon class="tp" style="--h:51.3px" points="392.2,253.4 427.1,265.5 392.2,277.6 357.2,265.5" fill="#509aff" stroke="#6ccfff" stroke-width=".7" stroke-opacity=".55"/></g><g class="cl" style="animation-delay:0.675s"><polygon class="fc" points="510.2,316.8 475.3,328.9 475.3,319.7 510.2,307.6" fill="#2e1d58"/><polygon class="fc" points="440.4,316.8 475.3,328.9 475.3,319.7 440.4,307.6" fill="#1d1339"/><polygon class="tp" style="--h:9.2px" points="475.3,295.5 510.2,307.6 475.3,319.7 440.4,307.6" fill="#4a2e8e" stroke="#633fbf" stroke-width=".7" stroke-opacity=".55"/></g><g class="cl" style="animation-delay:0.675s"><polygon class="fc" points="593.3,316.8 558.4,328.9 558.4,320.1 593.3,308.0" fill="#2d1c57"/><polygon class="fc" points="523.5,316.8 558.4,328.9 558.4,320.1 523.5,308.0" fill="#1d1238"/><polygon class="tp" style="--h:8.8px" points="558.4,295.9 593.3,308.0 558.4,320.1 523.5,308.0" fill="#482e8c" stroke="#613ebc" stroke-width=".7" stroke-opacity=".55"/></g><g class="cl" style="animation-delay:0.675s"><polygon class="fc" points="676.5,316.8 641.6,328.9 641.6,276.0 676.5,263.9" fill="#2e639e"/><polygon class="fc" points="606.7,316.8 641.6,328.9 641.6,276.0 606.7,263.9" fill="#1e4066"/><polygon class="tp" style="--h:52.9px" points="641.6,251.8 676.5,263.9 641.6,276.0 606.7,263.9" fill="#4ba0ff" stroke="#65d8ff" stroke-width=".7" stroke-opacity=".55"/></g><g class="cl" style="animation-delay:0.675s"><polygon class="fc" points="759.6,316.8 724.7,328.9 724.7,316.5 759.6,304.4" fill="#362064"/><polygon class="fc" points="689.8,316.8 724.7,328.9 724.7,316.5 689.8,304.4" fill="#231540"/><polygon class="tp" style="--h:12.4px" points="724.7,292.3 759.6,304.4 724.7,316.5 689.8,304.4" fill="#5734a1" stroke="#7646d9" stroke-width=".7" stroke-opacity=".55"/></g><g class="cl" style="animation-delay:0.675s"><polygon class="fc" points="842.8,316.8 807.8,328.9 807.8,319.3 842.8,307.2" fill="#2f1d59"/><polygon class="fc" points="772.9,316.8 807.8,328.9 807.8,319.3 772.9,307.2" fill="#1e133a"/><polygon class="tp" style="--h:9.6px" points="807.8,295.1 842.8,307.2 807.8,319.3 772.9,307.2" fill="#4b2f90" stroke="#6640c3" stroke-width=".7" stroke-opacity=".55"/></g><g class="cl" style="animation-delay:0.75s"><polygon class="fc" points="468.6,331.2 433.7,343.3 433.7,325.3 468.6,313.2" fill="#452578"/><polygon class="fc" points="398.8,331.2 433.7,343.3 433.7,325.3 398.8,313.2" fill="#2d184d"/><polygon class="tp" style="--h:18.0px" points="433.7,301.1 468.6,313.2 433.7,325.3 398.8,313.2" fill="#703cc2" stroke="#9752ff" stroke-width=".7" stroke-opacity=".55"/></g><g class="cl" style="animation-delay:0.75s"><polygon class="fc" points="551.8,331.2 516.9,343.3 516.9,334.3 551.8,322.2" fill="#2d1d57"/><polygon class="fc" points="481.9,331.2 516.9,343.3 516.9,334.3 481.9,322.2" fill="#1d1238"/><polygon class="tp" style="--h:9.0px" points="516.9,310.1 551.8,322.2 516.9,334.3 481.9,322.2" fill="#492e8d" stroke="#623ebe" stroke-width=".7" stroke-opacity=".55"/></g><g class="cl" style="animation-delay:0.75s"><polygon class="fc" points="634.9,331.2 600.0,343.3 600.0,329.3 634.9,317.2" fill="#3a2169"/><polygon class="fc" points="565.1,331.2 600.0,343.3 600.0,329.3 565.1,317.2" fill="#261644"/><polygon class="tp" style="--h:14.0px" points="600.0,305.2 634.9,317.2 600.0,329.3 565.1,317.2" fill="#5e36aa" stroke="#7f49e5" stroke-width=".7" stroke-opacity=".55"/></g><g class="cl" style="animation-delay:0.75s"><polygon class="fc" points="718.1,331.2 683.1,343.3 683.1,326.1 718.1,314.0" fill="#432575"/><polygon class="fc" points="648.2,331.2 683.1,343.3 683.1,326.1 648.2,314.0" fill="#2b184c"/><polygon class="tp" style="--h:17.2px" points="683.1,301.9 718.1,314.0 683.1,326.1 648.2,314.0" fill="#6c3bbd" stroke="#9250ff" stroke-width=".7" stroke-opacity=".55"/></g><g class="cl" style="animation-delay:0.75s"><polygon class="fc" points="801.2,331.2 766.3,343.3 766.3,335.5 801.2,323.4" fill="#2a1b53"/><polygon class="fc" points="731.4,331.2 766.3,343.3 766.3,335.5 731.4,323.4" fill="#1b1235"/><polygon class="tp" style="--h:7.8px" points="766.3,311.3 801.2,323.4 766.3,335.5 731.4,323.4" fill="#442c86" stroke="#5b3cb5" stroke-width=".7" stroke-opacity=".55"/></g><g class="cl" style="animation-delay:0.825s"><polygon class="fc" points="510.2,345.6 475.3,357.7 475.3,348.5 510.2,336.4" fill="#2e1d58"/><polygon class="fc" points="440.4,345.6 475.3,357.7 475.3,348.5 440.4,336.4" fill="#1e1339"/><polygon class="tp" style="--h:9.2px" points="475.3,324.3 510.2,336.4 475.3,348.5 440.4,336.4" fill="#4a2f8e" stroke="#643fc0" stroke-width=".7" stroke-opacity=".55"/></g><g class="cl" style="animation-delay:0.825s"><polygon class="fc" points="593.3,345.6 558.4,357.7 558.4,352.2 593.3,340.1" fill="#24194a"/><polygon class="fc" points="523.5,345.6 558.4,357.7 558.4,352.2 523.5,340.1" fill="#171030"/><polygon class="tp" style="--h:5.5px" points="558.4,328.0 593.3,340.1 558.4,352.2 523.5,340.1" fill="#3a2978" stroke="#4e37a2" stroke-width=".7" stroke-opacity=".55"/></g><g class="cl" style="animation-delay:0.825s"><polygon class="fc" points="676.5,345.6 641.6,357.7 641.6,342.9 676.5,330.8" fill="#3d226c"/><polygon class="fc" points="606.7,345.6 641.6,357.7 641.6,342.9 606.7,330.8" fill="#271646"/><polygon class="tp" style="--h:14.8px" points="641.6,318.7 676.5,330.8 641.6,342.9 606.7,330.8" fill="#6237af" stroke="#844bec" stroke-width=".7" stroke-opacity=".55"/></g><g class="cl" style="animation-delay:0.825s"><polygon class="fc" points="759.6,345.6 724.7,357.7 724.7,345.3 759.6,333.2" fill="#362064"/><polygon class="fc" points="689.8,345.6 724.7,357.7 724.7,345.3 689.8,333.2" fill="#231540"/><polygon class="tp" style="--h:12.4px" points="724.7,321.1 759.6,333.2 724.7,345.3 689.8,333.2" fill="#5734a1" stroke="#7646d9" stroke-width=".7" stroke-opacity=".55"/></g><g class="cl" style="animation-delay:0.9s"><polygon class="fc" points="551.8,360.0 516.9,372.1 516.9,360.3 551.8,348.2" fill="#351f61"/><polygon class="fc" points="481.9,360.0 516.9,372.1 516.9,360.3 481.9,348.2" fill="#22143f"/><polygon class="tp" style="--h:11.8px" points="516.9,336.1 551.8,348.2 516.9,360.3 481.9,348.2" fill="#55339d" stroke="#7344d4" stroke-width=".7" stroke-opacity=".55"/></g><g class="cl" style="animation-delay:0.9s"><polygon class="fc" points="634.9,360.0 600.0,372.1 600.0,358.3 634.9,346.2" fill="#3a2169"/><polygon class="fc" points="565.1,360.0 600.0,372.1 600.0,358.3 565.1,346.2" fill="#251644"/><polygon class="tp" style="--h:13.8px" points="600.0,334.1 634.9,346.2 600.0,358.3 565.1,346.2" fill="#5e36a9" stroke="#7e49e4" stroke-width=".7" stroke-opacity=".55"/></g><g class="cl" style="animation-delay:0.9s"><polygon class="fc" points="718.1,360.0 683.1,372.1 683.1,352.2 718.1,340.1" fill="#4a277f"/><polygon class="fc" points="648.2,360.0 683.1,372.1 683.1,352.2 648.2,340.1" fill="#301952"/><polygon class="tp" style="--h:19.9px" points="683.1,328.0 718.1,340.1 683.1,352.2 648.2,340.1" fill="#783fcd" stroke="#a256ff" stroke-width=".7" stroke-opacity=".55"/></g><g class="cl" style="animation-delay:0.975s"><polygon class="fc" points="593.3,374.4 558.4,386.5 558.4,381.7 593.3,369.6" fill="#221848"/><polygon class="fc" points="523.5,374.4 558.4,386.5 558.4,381.7 523.5,369.6" fill="#16102e"/><polygon class="tp" style="--h:4.8px" points="558.4,357.6 593.3,369.6 558.4,381.7 523.5,369.6" fill="#362874" stroke="#4a359c" stroke-width=".7" stroke-opacity=".55"/></g><g class="cl" style="animation-delay:0.975s"><polygon class="fc" points="676.5,374.4 641.6,386.5 641.6,375.1 676.5,363.0" fill="#341f60"/><polygon class="fc" points="606.7,374.4 641.6,386.5 641.6,375.1 606.7,363.0" fill="#21143e"/><polygon class="tp" style="--h:11.4px" points="641.6,350.9 676.5,363.0 641.6,375.1 606.7,363.0" fill="#53329b" stroke="#7144d1" stroke-width=".7" stroke-opacity=".55"/></g><g class="cl" style="animation-delay:1.05s"><polygon class="fc" points="634.9,388.8 600.0,400.9 600.0,387.5 634.9,375.4" fill="#392167"/><polygon class="fc" points="565.1,388.8 600.0,400.9 600.0,387.5 565.1,375.4" fill="#251543"/><polygon class="tp" style="--h:13.4px" points="600.0,363.3 634.9,375.4 600.0,387.5 565.1,375.4" fill="#5c35a7" stroke="#7c48e1" stroke-width=".7" stroke-opacity=".55"/></g>
<g font-family="ui-monospace,SFMono-Regular,Menlo,Consolas,monospace" font-size="10.5" fill="#6C7E9C"><text x="277.8" y="314.2" text-anchor="start">A1</text><text x="936.2" y="314.2" text-anchor="start">C2</text><text x="319.3" y="328.6" text-anchor="start">A2</text><text x="894.7" y="328.6" text-anchor="start">C1</text><text x="360.9" y="343.0" text-anchor="start">A3</text><text x="853.1" y="343.0" text-anchor="start">B3</text><text x="402.5" y="357.4" text-anchor="start">B1</text><text x="811.5" y="357.4" text-anchor="start">B2</text><text x="444.1" y="371.8" text-anchor="start">B2</text><text x="769.9" y="371.8" text-anchor="start">B1</text><text x="485.6" y="386.2" text-anchor="start">B3</text><text x="728.4" y="386.2" text-anchor="start">A3</text><text x="527.2" y="400.6" text-anchor="start">C1</text><text x="686.8" y="400.6" text-anchor="start">A2</text><text x="568.8" y="415.0" text-anchor="start">C2</text><text x="645.2" y="415.0" text-anchor="start">A1</text></g>
<rect x="1002" y="392" width="5.2" height="8" fill="#222058"/><rect x="1007" y="392" width="5.2" height="8" fill="#31266d"/><rect x="1012" y="392" width="5.2" height="8" fill="#402b81"/><rect x="1017" y="392" width="5.2" height="8" fill="#503196"/><rect x="1022" y="392" width="5.2" height="8" fill="#5f36aa"/><rect x="1027" y="392" width="5.2" height="8" fill="#6e3cbf"/><rect x="1032" y="392" width="5.2" height="8" fill="#7d41d4"/><rect x="1037" y="392" width="5.2" height="8" fill="#8c47e8"/><rect x="1042" y="392" width="5.2" height="8" fill="#9b4cfd"/><rect x="1047" y="392" width="5.2" height="8" fill="#9258ff"/><rect x="1052" y="392" width="5.2" height="8" fill="#8664ff"/><rect x="1057" y="392" width="5.2" height="8" fill="#7b6fff"/><rect x="1062" y="392" width="5.2" height="8" fill="#6f7bff"/><rect x="1067" y="392" width="5.2" height="8" fill="#6387ff"/><rect x="1072" y="392" width="5.2" height="8" fill="#5793ff"/><rect x="1077" y="392" width="5.2" height="8" fill="#4b9fff"/><rect x="1082" y="392" width="5.2" height="8" fill="#3fadff"/><rect x="1087" y="392" width="5.2" height="8" fill="#32bbff"/><rect x="1092" y="392" width="5.2" height="8" fill="#26caff"/><rect x="1097" y="392" width="5.2" height="8" fill="#1ad8ff"/><rect x="1102" y="392" width="5.2" height="8" fill="#0de6ff"/><rect x="1107" y="392" width="5.2" height="8" fill="#01f4ff"/><rect x="1112" y="392" width="5.2" height="8" fill="#00f0ed"/><rect x="1117" y="392" width="5.2" height="8" fill="#00ebda"/><rect x="1122" y="392" width="5.2" height="8" fill="#00e6c8"/><rect x="1127" y="392" width="5.2" height="8" fill="#00e0b5"/><rect x="1132" y="392" width="5.2" height="8" fill="#00dba2"/><rect x="1137" y="392" width="5.2" height="8" fill="#00d68f"/>
<g font-family="ui-monospace,SFMono-Regular,Menlo,Consolas,monospace" font-size="10" fill="#6C7E9C">
<text x="1002" y="384">rarely switch</text><text x="1148" y="384" text-anchor="end">always</text>
<text x="60" y="440" fill="#5E718F">built as an interactive Streamlit explorer at Aria; cut the analysis from days to minutes.</text>
</g>
</svg>
